<svg xmlns="http://www.w3.org/2000/svg" viewBox="0 0 2107.15 1851.15"><defs><style>.cls-1{opacity:0.11;}.cls-2,.cls-3,.cls-6,.cls-8{fill:none;stroke:#0385ff;stroke-linecap:round;stroke-miterlimit:10;stroke-width:14px;}.cls-3{stroke-dasharray:64.87 75.01;}.cls-4{opacity:0.18;}.cls-5{opacity:0.24;}.cls-6{stroke-dasharray:64.76 74.88;}.cls-7{opacity:0.31;}.cls-8{stroke-dasharray:64.13 74.15;}</style></defs><g id="Layer_2" data-name="Layer 2"><g id="Layer_1-2" data-name="Layer 1"><g class="cls-1"><path class="cls-2" d="M1743.28,7q-3.49,15.59-7.06,31.21"/><path class="cls-3" d="M1719,111.22c-113,467.14-286.3,928.22-551.44,958.88C822.47,1110,570.81,391.92,280.24,346.61"/><path class="cls-2" d="M242.85,344.6A180,180,0,0,0,211.2,349"/></g><g class="cls-4"><path class="cls-2" d="M1765.2,135.83q-1.77,15.87-3.64,31.79"/><path class="cls-3" d="M1752.37,242.05c-61.85,476.62-184.32,953.72-444.6,1012.86C969,1331.89,641.2,645.19,347.43,631.54"/><path class="cls-2" d="M310,633.58a179.2,179.2,0,0,0-31,7.83"/></g><g class="cls-5"><path class="cls-2" d="M1898.6,98.91q-1.78,15.89-3.64,31.8"/><path class="cls-6" d="M1886,205c-77.51,616.18-233,1241.8-569.62,1318.27C864.43,1626,853.41,824.81,76.28,747.29"/><path class="cls-2" d="M39,744.17Q23.19,743.11,7,742.43"/></g><g class="cls-7"><path class="cls-2" d="M2100.15,496.36q-3.65,15.56-7.36,31.14"/><path class="cls-8" d="M2075.27,599.55c-149.68,603-378,1206.3-721.39,1242.54C905,1889.46,592,1106.61,210.9,935.05"/><path class="cls-2" d="M176.47,921.32q-15.24-5.28-30.65-9.18"/></g></g></g></svg>