<svg xmlns="http://www.w3.org/2000/svg" viewBox="0 0 1021.32 117.85"><defs><style>.cls-1,.cls-2{fill:#fff;}.cls-2{stroke:#fff;stroke-miterlimit:10;}</style></defs><g id="Layer_2" data-name="Layer 2"><g id="Layer_1-2" data-name="Layer 1"><path class="cls-1" d="M37.3,103.39,9.68,28.8,2,27.85V17.47H36.17V27.85L28.44,29l16.88,50.7,1.3,4.72H47l1.24-4.61L65.09,29l-9-1.18V17.47H88.64V27.85l-7.79.95L54.94,103.39Z" transform="translate(-2.01 -11.33)"/><path class="cls-1" d="M122,104.63a31,31,0,0,1-16-4A27.81,27.81,0,0,1,95.45,89.46,34,34,0,0,1,91.7,73.29V70.93a38.31,38.31,0,0,1,3.54-16.84,28,28,0,0,1,10-11.57,26.92,26.92,0,0,1,15.25-4.16q8.69,0,14.58,3.42a22.1,22.1,0,0,1,9,9.86,36,36,0,0,1,3.07,15.58V76.6H109.58l-.11.35a19.1,19.1,0,0,0,2.09,7.47,12.75,12.75,0,0,0,4.93,5.13,15.08,15.08,0,0,0,7.73,1.86A30.88,30.88,0,0,0,133,90.2a33.39,33.39,0,0,0,8-3.57l4.66,10.62a33.19,33.19,0,0,1-9.94,5.29A41.68,41.68,0,0,1,122,104.63ZM109.7,65.21H131V63.67A19.35,19.35,0,0,0,130,57a8.7,8.7,0,0,0-3.3-4.34,10.32,10.32,0,0,0-5.87-1.54A9.28,9.28,0,0,0,115,52.91a11.84,11.84,0,0,0-3.68,4.92,25.68,25.68,0,0,0-1.8,7.08Z" transform="translate(-2.01 -11.33)"/><path class="cls-1" d="M154.31,103.39V93.06l8.26-1.77V51.7l-9.14-1.78V39.54h25.2l.76,9.15a23.27,23.27,0,0,1,7.88-7.62A21,21,0,0,1,198,38.36q9.51,0,14.87,6.08t5.37,19.06V91.29l8.27,1.77v10.33H193.56V93.06l7.37-1.77V63.56q0-6.44-2.53-9.12c-1.7-1.79-4.21-2.69-7.56-2.69a12.85,12.85,0,0,0-6.46,1.57,13,13,0,0,0-4.57,4.45V91.29l7,1.77v10.33Z" transform="translate(-2.01 -11.33)"/><path class="cls-1" d="M255,104.63q-8.91,0-13.72-4.9t-4.81-15.52V51.64h-8.8V39.54h8.8V23.9h17.17V39.54h11.74v12.1H253.63V84.15q0,3.72,1.56,5.31a5.69,5.69,0,0,0,4.28,1.6,24.22,24.22,0,0,0,3.1-.21c1.08-.14,2-.28,2.8-.44l1.48,12.45a50.28,50.28,0,0,1-5.76,1.27A38.6,38.6,0,0,1,255,104.63Z" transform="translate(-2.01 -11.33)"/><path class="cls-1" d="M300.25,104.63q-10.1,0-15.85-6.4t-5.75-19.92V51.7l-7-1.78V39.54h24.26V78.43q0,6.84,2.39,9.82t7.23,3a14.72,14.72,0,0,0,6.78-1.5,12.78,12.78,0,0,0,4.84-4.28V51.7l-7.61-1.78V39.54h24.85V91.29L342,93.06v10.33H319.25l-1.18-8.08a20.78,20.78,0,0,1-7.56,6.9A21.53,21.53,0,0,1,300.25,104.63Z" transform="translate(-2.01 -11.33)"/><path class="cls-1" d="M349.58,103.39V93.06l8.26-1.77V51.7l-9.15-1.78V39.54h25.2l.65,7.91.12,1.41A20,20,0,0,1,380.5,41a13.33,13.33,0,0,1,8.32-2.65,24.68,24.68,0,0,1,3.37.26,25.4,25.4,0,0,1,3.24.68L393.6,55.18,385,54.71a10.14,10.14,0,0,0-5.93,1.23,13.67,13.67,0,0,0-4,4.08V91.29l8.26,1.77v10.33Z" transform="translate(-2.01 -11.33)"/><path class="cls-1" d="M429.83,104.63a30.89,30.89,0,0,1-16-4,27.81,27.81,0,0,1-10.59-11.13,34,34,0,0,1-3.75-16.17V70.93A38.31,38.31,0,0,1,403,54.09a28,28,0,0,1,10-11.57,27,27,0,0,1,15.26-4.16q8.67,0,14.57,3.42a22,22,0,0,1,9,9.86,35.86,35.86,0,0,1,3.07,15.58V76.6H417.38l-.12.35a19.28,19.28,0,0,0,2.1,7.47,12.75,12.75,0,0,0,4.93,5.13A15.08,15.08,0,0,0,432,91.41a31,31,0,0,0,8.82-1.21,33.32,33.32,0,0,0,8-3.57l4.67,10.62a33.13,33.13,0,0,1-9.95,5.29A41.6,41.6,0,0,1,429.83,104.63ZM417.5,65.21h21.3V63.67a19.36,19.36,0,0,0-1-6.69,8.7,8.7,0,0,0-3.3-4.34,10.36,10.36,0,0,0-5.88-1.54,9.25,9.25,0,0,0-5.78,1.81,12,12,0,0,0-3.69,4.92,26.41,26.41,0,0,0-1.8,7.08Z" transform="translate(-2.01 -11.33)"/><path class="cls-1" d="M491.85,103.39V93.06L501,91.29V29.62l-9.15-1.77V17.47h36.76V27.85l-10.38,1.77V90.17h24.25l.83-12.57h13.16v25.79Z" transform="translate(-2.01 -11.33)"/><path class="cls-1" d="M593.53,104.63a31,31,0,0,1-16-4,27.81,27.81,0,0,1-10.59-11.13,34,34,0,0,1-3.75-16.17V70.93a38.31,38.31,0,0,1,3.54-16.84,28,28,0,0,1,10-11.57A26.92,26.92,0,0,1,592,38.36q8.67,0,14.58,3.42a22.1,22.1,0,0,1,9,9.86,36,36,0,0,1,3.07,15.58V76.6H581.07L581,77a19.1,19.1,0,0,0,2.09,7.47A12.75,12.75,0,0,0,588,89.55a15.08,15.08,0,0,0,7.73,1.86,30.88,30.88,0,0,0,8.82-1.21,33.39,33.39,0,0,0,8-3.57l4.66,10.62a33.19,33.19,0,0,1-9.94,5.29A41.68,41.68,0,0,1,593.53,104.63ZM581.19,65.21H602.5V63.67a19.35,19.35,0,0,0-1-6.69,8.7,8.7,0,0,0-3.3-4.34,10.32,10.32,0,0,0-5.87-1.54,9.28,9.28,0,0,0-5.79,1.81,12,12,0,0,0-3.69,4.92A26,26,0,0,0,581,64.91Z" transform="translate(-2.01 -11.33)"/><path class="cls-1" d="M647.81,104.63q-9.49,0-15.1-5.1t-5.61-13.9a17.56,17.56,0,0,1,3.28-10.57,21.62,21.62,0,0,1,9.67-7.14,42.22,42.22,0,0,1,15.79-2.59h8.44V60.61a10.49,10.49,0,0,0-2.69-7.47q-2.69-2.87-8.05-2.86a16.8,16.8,0,0,0-5,.68,15,15,0,0,0-4,1.92l-1.36,8.43H630.82l-.24-16.58a53.79,53.79,0,0,1,10.86-4.6,44.9,44.9,0,0,1,13-1.77q12.51,0,19.77,5.81t7.26,16.61V87.1c0,.87,0,1.72,0,2.57a19.25,19.25,0,0,0,.21,2.45l6.67.94v10.33H667.05c-.43-1.1-.86-2.28-1.3-3.54a22.7,22.7,0,0,1-.94-3.78,24.23,24.23,0,0,1-7.23,6.23A19.7,19.7,0,0,1,647.81,104.63Zm4.61-12.75a15.1,15.1,0,0,0,6.84-1.62,12.63,12.63,0,0,0,5-4.28V75.89h-8.5q-5.67,0-8.58,2.6a8.07,8.07,0,0,0-2.93,6.25A6.58,6.58,0,0,0,646.43,90,8.86,8.86,0,0,0,652.42,91.88Z" transform="translate(-2.01 -11.33)"/><path class="cls-1" d="M695.73,103.39V93.06L704,91.29V51.7l-9.14-1.78V39.54H720l.65,7.91.12,1.41A20,20,0,0,1,726.65,41,13.33,13.33,0,0,1,735,38.36a24.57,24.57,0,0,1,3.37.26,25,25,0,0,1,3.24.68l-1.83,15.88-8.55-.47a10.13,10.13,0,0,0-5.93,1.23,13.58,13.58,0,0,0-4,4.08V91.29l8.27,1.77v10.33Z" transform="translate(-2.01 -11.33)"/><path class="cls-1" d="M746.36,103.39V93.06l8.26-1.77V51.7l-9.14-1.78V39.54h25.19l.77,9.15a23.27,23.27,0,0,1,7.88-7.62A21,21,0,0,1,790,38.36q9.5,0,14.87,6.08t5.37,19.06V91.29l8.26,1.77v10.33H785.6V93.06L793,91.29V63.56q0-6.44-2.54-9.12t-7.55-2.69a12.85,12.85,0,0,0-6.46,1.57,13.06,13.06,0,0,0-4.58,4.45V91.29l7,1.77v10.33Z" transform="translate(-2.01 -11.33)"/><path class="cls-1" d="M823.49,103.39V93.06l8.32-1.77V51.7l-9.21-1.78V39.54H849V91.29l8.26,1.77v10.33ZM831.22,26V11.33H849V26Z" transform="translate(-2.01 -11.33)"/><path class="cls-1" d="M862.26,103.39V93.06l8.26-1.77V51.7l-9.15-1.78V39.54h25.2l.77,9.15a23.25,23.25,0,0,1,7.87-7.62,21,21,0,0,1,10.72-2.71q9.5,0,14.87,6.08t5.37,19.06V91.29l8.26,1.77v10.33H901.5V93.06l7.38-1.77V63.56q0-6.44-2.54-9.12t-7.55-2.69a12.89,12.89,0,0,0-6.47,1.57,13,13,0,0,0-4.57,4.45V91.29l7,1.77v10.33Z" transform="translate(-2.01 -11.33)"/><path class="cls-1" d="M967.36,129.18a54,54,0,0,1-10.86-1.24,43.48,43.48,0,0,1-10.63-3.54l3.19-12.28a49.82,49.82,0,0,0,8.76,2.81,39.78,39.78,0,0,0,8.65,1q6.9,0,10.12-3.84t3.22-10.68V97.25a19.29,19.29,0,0,1-6.67,5.49,19.65,19.65,0,0,1-8.79,1.89,22.81,22.81,0,0,1-13.4-3.92,24.62,24.62,0,0,1-8.56-11,42.7,42.7,0,0,1-2.95-16.47V72a48.52,48.52,0,0,1,2.95-17.65,26.67,26.67,0,0,1,8.44-11.77A21,21,0,0,1,964,38.36a19.41,19.41,0,0,1,9.86,2.39,20.88,20.88,0,0,1,7,6.81l1.24-8h15v62a28.82,28.82,0,0,1-3.57,14.64,24.43,24.43,0,0,1-10.24,9.62A34.55,34.55,0,0,1,967.36,129.18Zm1.82-37.95a13.08,13.08,0,0,0,6.32-1.44,11.25,11.25,0,0,0,4.31-4.22V57.83a11.67,11.67,0,0,0-10.57-6.08,10.19,10.19,0,0,0-7.2,2.57A15.08,15.08,0,0,0,958,61.4a38.75,38.75,0,0,0-1.3,10.6v1.23q0,8.38,2.9,13.19T969.18,91.23ZM994.91,52l-7.49-12.45h17.17V49.92Z" transform="translate(-2.01 -11.33)"/><path class="cls-2" d="M1015.54,104.63a6.94,6.94,0,0,1-2.84-.59,7,7,0,0,1-2.32-1.64,7.54,7.54,0,0,1-1.56-2.45,8.26,8.26,0,0,1,0-6,7.49,7.49,0,0,1,1.56-2.44,7,7,0,0,1,2.32-1.63,7.11,7.11,0,0,1,5.67,0,7.16,7.16,0,0,1,2.33,1.63,7.49,7.49,0,0,1,1.56,2.44,8.26,8.26,0,0,1,0,6,7.56,7.56,0,0,1-1.57,2.45,7.26,7.26,0,0,1-2.32,1.64A6.9,6.9,0,0,1,1015.54,104.63Zm0-1.28a5.77,5.77,0,0,0,2.34-.49,6,6,0,0,0,1.92-1.37,6.33,6.33,0,0,0,1.29-2,6.76,6.76,0,0,0,.47-2.52,6.67,6.67,0,0,0-.47-2.51,6.31,6.31,0,0,0-1.3-2,6,6,0,0,0-1.92-1.36,6,6,0,0,0-4.69,0,5.91,5.91,0,0,0-1.93,1.35,6.44,6.44,0,0,0-1.29,2,6.67,6.67,0,0,0-.46,2.51,6.76,6.76,0,0,0,.46,2.52,6.19,6.19,0,0,0,1.3,2,5.92,5.92,0,0,0,1.92,1.37A5.83,5.83,0,0,0,1015.55,103.35Zm-.15-1.83a3.32,3.32,0,0,1-2.62-1.09,4.2,4.2,0,0,1-1-2.88V96.33a4.22,4.22,0,0,1,1-2.88,3.33,3.33,0,0,1,2.62-1.1,3.67,3.67,0,0,1,2.52.82,2.88,2.88,0,0,1,.86,2.34l0,.07h-1.52a1.83,1.83,0,0,0-.46-1.4,1.91,1.91,0,0,0-1.38-.44,1.71,1.71,0,0,0-1.48.71,3.12,3.12,0,0,0-.51,1.87v1.23a3.15,3.15,0,0,0,.51,1.88,1.71,1.71,0,0,0,1.48.7,2,2,0,0,0,1.38-.43,1.85,1.85,0,0,0,.45-1.4h1.52l0,.06a2.86,2.86,0,0,1-.86,2.35A3.62,3.62,0,0,1,1015.4,101.52Z" transform="translate(-2.01 -11.33)"/></g></g></svg>