<svg xmlns="http://www.w3.org/2000/svg" version="1.1" xmlns:xlink="http://www.w3.org/1999/xlink" xmlns:svgjs="http://svgjs.dev/svgjs" style="overflow: hidden; height: 85vh;" viewBox="0 0 1920 1080" class="overflow-hidden rounded-md drop-shadow-lg transition duration-300"><rect width="1920" height="1080" fill="#5252d2"/><g clip-path="url(&quot;#SvgjsClipPath1689&quot;)"><g transform="matrix(1.073617490471782,0.41212314197709526,-0.41212314197709526,1.073617490471782,154.2064676264132,-422.33246664399894)"><path d="M0,-1080C4.729132943774101,-1009.2572321678542,31.48761880828946,-815.5568722090129,28.37479766264461,-655.5433930071257C25.26197651699976,-495.5299138052385,-3.7054091074102757,-282.7349457843533,-18.676926873869107,-119.91912478867651C-33.64844464032794,42.89669620700026,-72.40111183218475,173.3150022834812,-61.454308936108376,321.351532966935C-50.507506040032,469.3880636503888,30.22287701131813,608.0012682450641,47.00389050258916,768.3000593120463C63.78490399386018,928.5988503790285,44.683787737202486,1122.8508033861133,39.23177201151779,1283.144279368828C33.779756285833095,1443.4377553515426,20.830424817067268,1583.9182951031385,14.29179614848097,1730.0609152083339C7.753167479894671,1876.2035353135293,2.3819660247468284,2088.3434858680557,0,2160L 1920 2160 L 1920 -1080 Z" fill="url(&quot;#SvgjsLinearGradient1683&quot;)"/><path d="M320,-1080C315.2755570744594,-1014.3454773777521,289.7863757416807,-815.7699396731086,291.6533424467565,-686.0728642665124C293.5203091518323,-556.3757888599162,324.6256027320131,-431.4765515532117,331.201800230455,-301.8175475604222C337.7779977288969,-172.15854356763273,342.56525928595215,-55.45102106140841,331.11052743740777,91.8811596902245C319.6557955888634,239.21334044185738,274.2440625092968,446.51036662464776,262.47340913918856,582.1755369493752C250.7027557690803,717.8407072741027,244.25677466717272,783.523584736274,260.4866072167583,905.8721816385895C276.71643976634385,1028.220778540905,356.94523077317103,1174.2362208061645,359.85240443670193,1316.2671183632683C362.75957810023283,1458.298015920372,284.5717166040606,1617.4354200417577,277.9296491979436,1758.0575669812129C271.2875817918266,1898.679713920668,312.98827486632393,2093.009594496869,320,2160L 1920 2160 L 1920 -1080 Z" fill="url(&quot;#SvgjsLinearGradient1684&quot;)"/><path d="M640,-1080C649.1875704859018,-964.3809403708573,693.8023361655902,-607.7314716963143,695.125422915411,-386.28564222514393C696.4485096652319,-164.83981275397352,660.3061333654381,46.91998104626444,647.9385204989251,248.67497682702248C635.5709076324121,450.42997260778054,626.6278687877317,607.4117550323307,620.9197457163328,824.2443324594043C615.211622644934,1041.0769098864778,610.5097396899205,1327.0444967993644,613.6897820705317,1549.6704413894638C616.8698244511429,1772.2963859795632,635.614963678422,2058.278406898244,640,2160L 1920 2160 L 1920 -1080 Z" fill="url(&quot;#SvgjsLinearGradient1685&quot;)"/><path d="M960,-1080C958.6250071574843,-970.3135472175413,953.4085935123082,-633.16057732086,951.7500429449062,-421.8812833052476C950.0914923775042,-210.6019892896352,951.7760474373067,-16.78330102280563,950.0486965955879,187.67576409367442C948.3213457538691,392.13482921015446,932.0472788315362,588.8086833217815,941.3859378945933,804.8731073936327C950.7245969576504,1020.937531465484,1002.9783072896963,1258.207826423721,1006.0806509739308,1484.062308524782C1009.1829946581653,1709.9167906258433,967.6801084956551,2047.3437180874637,960,2160L 1920 2160 L 1920 -1080 Z" fill="url(&quot;#SvgjsLinearGradient1686&quot;)"/><path d="M1280,-1080C1270.8004758420138,-1021.5878909680475,1226.9297339049238,-857.1342325096667,1224.8028550520835,-729.5273458082855C1222.6759761992432,-601.9204591069043,1248.16887247137,-455.6000243150727,1267.2387268829582,-314.3586797917127C1286.3085812945465,-173.11733526835272,1336.973582218573,-30.54961948865204,1339.221981521613,117.92072133187418C1341.4703808246531,266.3910621524004,1300.0552601309769,435.9733685074033,1280.7291227011988,576.4633651314447C1261.4029852714207,716.9533617554861,1214.8812815824372,834.8399661943549,1223.2651569429445,960.8607010761228C1231.6490323034518,1086.8814359578907,1318.7352090221125,1193.9241962523586,1331.0323748642427,1332.5877744220518C1343.3295407063729,1471.251352591745,1305.5535478064332,1654.9401324979572,1297.0481519957261,1792.8421700942818C1288.542756185019,1930.7442076906063,1282.8413586659544,2098.807028349047,1280,2160L 1920 2160 L 1920 -1080 Z" fill="url(&quot;#SvgjsLinearGradient1687&quot;)"/><path d="M1600,-1080C1598.464803075789,-1004.3162577027271,1580.219515784956,-789.3681812500497,1590.788818454734,-625.8975462163622C1601.3581211245119,-462.42691118267476,1653.6281491868053,-263.1023495536608,1663.415816018667,-99.17618979787525C1673.2034828505289,64.74996995791031,1652.296333381443,205.51778144606632,1649.5148194459048,357.6594123183512C1646.7333055103666,509.80104319063605,1649.4011001395597,667.0944309317102,1646.7267324054376,813.6735954358339C1644.0523646713154,960.2527599399576,1644.0770159295134,1089.4389568430643,1633.4686130411726,1237.1343993430935C1622.8602101528318,1384.8298418431227,1588.654417248921,1546.0353169931911,1583.0763150753921,1699.8462504360089C1577.4982129018633,1853.6571838788266,1597.1793858458987,2083.3077084060014,1600,2160L 1920 2160 L 1920 -1080 Z" fill="url(&quot;#SvgjsLinearGradient1688&quot;)"/></g></g><defs><linearGradient x1="0.1" y1="0" x2="0" y2="1" id="SvgjsLinearGradient1683"><stop stop-color="#5252d2" offset="0"/><stop stop-color="#5267d2" offset="0"/></linearGradient><linearGradient x1="0.1" y1="0" x2="0" y2="1" id="SvgjsLinearGradient1684"><stop stop-color="#3838cb" offset="0"/><stop stop-color="#3850cb" offset="0.16666666666666666"/></linearGradient><linearGradient x1="0.1" y1="0" x2="0" y2="1" id="SvgjsLinearGradient1685"><stop stop-color="#2f2fb5" offset="0"/><stop stop-color="#2f45b5" offset="0.3333333333333333"/></linearGradient><linearGradient x1="0.1" y1="0" x2="0" y2="1" id="SvgjsLinearGradient1686"><stop stop-color="#28289b" offset="0"/><stop stop-color="#283b9b" offset="0.5"/></linearGradient><linearGradient x1="0.1" y1="0" x2="0" y2="1" id="SvgjsLinearGradient1687"><stop stop-color="#222282" offset="0"/><stop stop-color="#223282" offset="0.6666666666666666"/></linearGradient><linearGradient x1="0.1" y1="0" x2="0" y2="1" id="SvgjsLinearGradient1688"><stop stop-color="#1b1b68" offset="0"/><stop stop-color="#1b2868" offset="0.8333333333333334"/></linearGradient><clipPath id="SvgjsClipPath1689"><rect width="1920" height="1080"/></clipPath></defs></svg>